<?xml version="1.0" encoding="UTF-8" standalone="no"?>
<!DOCTYPE svg PUBLIC "-//W3C//DTD SVG 1.1//EN" "http://www.w3.org/Graphics/SVG/1.1/DTD/svg11.dtd">
<svg width="100%" height="100%" viewBox="0 0 3199 256" version="1.1" xmlns="http://www.w3.org/2000/svg" xmlns:xlink="http://www.w3.org/1999/xlink" xml:space="preserve" xmlns:serif="http://www.serif.com/" style="fill-rule:evenodd;clip-rule:evenodd;stroke-linejoin:round;stroke-miterlimit:2;">
    <g transform="matrix(1,0,0,1,-95.0854,-1650.75)">
        <path d="M3175.41,1777.73C3167.05,1772.11 3165.18,1764.29 3169.67,1756.78C3156.23,1771.77 3134.28,1774.48 3116.59,1782.73C3114.59,1766.42 3116.04,1751.89 3126.84,1740.91C3107.6,1743.01 3086.16,1745.96 3068.74,1752.82C3048.33,1760.85 3034.87,1780.4 3011.58,1781.54C3010.92,1783.97 3011.81,1787.06 3011,1789.21C3012.04,1768.45 3025.16,1756.67 3019,1736C3014.27,1720.12 3030.29,1698.13 3039,1680C3029.04,1692.36 2991,1696 2966.38,1722.38C2954.65,1734.95 2952.84,1751.19 2937.04,1758.44C2933.82,1740.1 2917.93,1718.22 2930.53,1701.25C2919.2,1707.37 2904.46,1712.62 2895.92,1722.58C2885.31,1734.96 2886.06,1751.27 2873.39,1760.95C2870.43,1751.41 2884.16,1707.48 2895,1698C2847,1708 2833.92,1718.71 2817.37,1743.58C2813.93,1714.01 2830.23,1668.76 2857.03,1650.75C2816.08,1673.95 2785.47,1704.64 2745.45,1734.3C2706.77,1762.97 2674.92,1759.89 2617.91,1804.9C2622.19,1791.06 2640.8,1736.1 2654.03,1727.52C2613.01,1741.25 2526.11,1759.67 2505.94,1798.57C2492.03,1784.68 2509,1736 2525,1704C2502.71,1712.45 2439,1736 2410.57,1769.38C2393.52,1789.4 2370.69,1787.53 2353.46,1808.52C2345.47,1800.95 2343.32,1789.54 2344.56,1778.37C2323.41,1772.98 2301.1,1786.7 2284.64,1798.18C2278.2,1789.42 2274.63,1785.52 2278.53,1774.75C2264.74,1783.58 2249.36,1790.61 2233.96,1795.77C2245.58,1767.53 2261.2,1731.31 2295.57,1729.1C2250.33,1729.23 2207.86,1737.12 2167.66,1758.93C2138.97,1774.5 2109.76,1779.46 2082.87,1793.03C2072.54,1798.24 2062.56,1804.71 2053.08,1813.54C2059.98,1785.64 2093.32,1711.42 2115.73,1704.72C2080.25,1702.16 2049.14,1737.39 2021.37,1753.33C1993.07,1769.58 1960.91,1774.75 1930.77,1785.35C1898.06,1796.86 1884.64,1814.98 1858.59,1835.87C1822.65,1864.7 1856.61,1807.18 1859,1778C1849.16,1779.6 1817.15,1795.81 1808.08,1800.82C1810.89,1782.9 1798.71,1744.96 1807,1728C1784.3,1741.42 1775.97,1778.11 1750.07,1784.38C1722.78,1790.99 1689.97,1787.24 1672.75,1815.67C1671.38,1801.38 1709,1758 1689,1736C1662.03,1767.73 1627.05,1788.96 1587,1804C1584.32,1778.93 1558.12,1762.65 1523.06,1792.59C1528.86,1769.16 1531,1744 1575,1716C1531,1718 1495,1738 1471.9,1776.22C1456.7,1801.35 1415.11,1797.04 1401.81,1825.72C1393.75,1810.6 1373.29,1799.22 1354.78,1801.37C1351.56,1783.33 1360.71,1767.72 1369.43,1753.3C1354.13,1757.61 1345.52,1769.28 1331.54,1775.13C1315.08,1782.01 1299.67,1777.36 1282.76,1776.35C1242.89,1773.96 1227.69,1788.22 1201.5,1813.56C1209.98,1797.92 1214.57,1790.13 1216.14,1772.28C1217.72,1754.31 1206.2,1743.37 1222.61,1727.1C1189.62,1744.06 1174.42,1769.19 1147,1782C1129.7,1790.09 1104.01,1802.39 1087,1815.61C1074.22,1825.55 1071.02,1840.61 1059.23,1852.31C1050.13,1834.34 1026.18,1841.04 1014.05,1854.56C1032.39,1813.14 980.039,1768.98 1013,1722C985.687,1747.16 929,1748 898.666,1776.06C871.736,1800.98 862.105,1822.69 832.198,1833.98C831.159,1822.17 831.667,1810.2 834.113,1798.76C805.263,1798.17 789.958,1819 772.749,1838.88C776.9,1818.55 772.94,1798.84 772.491,1779.1C772.098,1761.84 777.36,1746.56 778.882,1729.24C758.538,1740.56 757.985,1757.36 745.701,1775.69C732.77,1794.98 712.587,1807.54 694.998,1820.04C695.554,1817.14 696.365,1814.64 696.505,1811.23C680.894,1807.72 666.139,1813.75 654.511,1823.97C655.387,1802.65 650.634,1765.7 678.959,1762.47C645.086,1763.08 611.943,1769.76 583.172,1789.97C558.427,1807.36 545.084,1836.1 513.861,1843.07C514.281,1830 515.835,1819.03 521.94,1807.39C498.094,1808.27 485.959,1830.33 471.822,1845.45C478.704,1809.99 472.536,1770.57 502.892,1744.84C465.78,1735.65 441.564,1772.75 415.924,1791.39C383.313,1815.1 365.397,1805.22 333,1822C339.672,1788.53 348.684,1771.13 363,1740C341.467,1754.28 285.398,1756.16 263,1770C238.325,1785.25 240.156,1820.74 219.922,1831.62C224.274,1818.47 222.259,1803.72 220.226,1789.64C185.383,1840.71 93.954,1817.06 95.096,1904.82L3209,1906C3244.74,1904.71 3267,1884 3291,1840C3308.64,1807.66 3236.33,1767.18 3264.89,1747.66C3234.65,1760.01 3197.32,1751.49 3175.41,1777.73Z" style="fill:rgb(255,103,62);fill-rule:nonzero;"/>
    </g>
</svg>
